# xmcd
#
# Track frame offsets: 
#        150
#        22459
#        38394
#        59742
#        72452
#        92867
#        106190
#        124452
#        139635
#        160558
#        184323
#        208924
#        227353
#        245587
#
# Disc length: 3585 seconds
#
# Revision: 0
# Processed by: cddbd v1.5.2PL0 Copyright (c) Steve Scherf et al.
# Submitted via: ExactAudioCopy v1.3
#
DISCID=cc0dff0e
DTITLE=Buddy Guy - Born To Play Guitar
DYEAR=2015
DGENRE=Electric Blues, Chicago Blues
TTITLE0=Born To Play Guitar
TTITLE1=Wear You Out
TTITLE2=Back Up Mama
TTITLE3=Too Late
TTITLE4=Whiskey, Beer and Wine
TTITLE5=Kiss Me Quick
TTITLE6=Crying Out Of One Eye
TTITLE7=(Baby) You Got What It Takes
TTITLE8=Turn Me Wild
TTITLE9=Crazy World
TTITLE10=Smarter Than I Was
TTITLE11=Thick Like Mississippi Mud
TTITLE12=Flesh and Bone (Dedicated to B.B.
TTITLE13=Come Back Muddy
EXTD=
EXTT0=
EXTT1=
EXTT2=
EXTT3=
EXTT4=
EXTT5=
EXTT6=
EXTT7=
EXTT8=
EXTT9=
EXTT10=
EXTT11=
EXTT12=
EXTT13=
PLAYORDER=
